STARTFONT 2.1
FONT -FontForge-CF Night of Terror PERSONAL-Book-R-Normal--31-300-75-75-P-218-ISO10646-1
SIZE 30 75 75
FONTBOUNDINGBOX 37 34 0 -10
COMMENT "Generated by fontforge, http://fontforge.sourceforge.net"
COMMENT "Copyright (c) 2019 by Cloutierfontes. All rights reserved."
STARTPROPERTIES 40
FOUNDRY "FontForge"
FAMILY_NAME "CF Night of Terror PERSONAL"
WEIGHT_NAME "Book"
SLANT "R"
SETWIDTH_NAME "Normal"
ADD_STYLE_NAME ""
PIXEL_SIZE 31
POINT_SIZE 300
RESOLUTION_X 75
RESOLUTION_Y 75
SPACING "P"
AVERAGE_WIDTH 218
CHARSET_REGISTRY "ISO10646"
CHARSET_ENCODING "1"
FONTNAME_REGISTRY ""
CHARSET_COLLECTIONS "ISO10646-1"
FONT_NAME "CFNightofTerrorPERSONAL-Reg"
FACE_NAME "CF Night of Terror PERSONAL Regular"
COPYRIGHT "Copyright (c) 2019 by Cloutierfontes. All rights reserved."
FONT_VERSION "1.00 2019"
FONT_ASCENT 22
FONT_DESCENT 9
UNDERLINE_POSITION -3
UNDERLINE_THICKNESS 2
X_HEIGHT 22
CAP_HEIGHT 23
DEFAULT_CHAR 1
RAW_ASCENT 705
RAW_DESCENT 295
NORM_SPACE 5
RELATIVE_WEIGHT 40
RELATIVE_SETWIDTH 50
SUPERSCRIPT_X 0
SUPERSCRIPT_Y 14
SUPERSCRIPT_SIZE 20
SUBSCRIPT_X 0
SUBSCRIPT_Y 4
SUBSCRIPT_SIZE 20
AVG_LOWERCASE_WIDTH 205
AVG_UPPERCASE_WIDTH 201
ENDPROPERTIES
CHARS 92
STARTCHAR NULL.dup1
ENCODING 0
SWIDTH 0 0
DWIDTH 0 0
BBX 1 1 0 0
BITMAP
00
ENDCHAR
STARTCHAR nonmarkingreturn
ENCODING 13
SWIDTH 0 0
DWIDTH 0 0
BBX 1 1 0 0
BITMAP
00
ENDCHAR
STARTCHAR space
ENCODING 32
SWIDTH 169 0
DWIDTH 5 0
BBX 1 1 0 0
BITMAP
00
ENDCHAR
STARTCHAR exclam
ENCODING 33
SWIDTH 1000 0
DWIDTH 31 0
BBX 1 1 0 0
BITMAP
00
ENDCHAR
STARTCHAR quotedbl
ENCODING 34
SWIDTH 1000 0
DWIDTH 31 0
BBX 1 1 0 0
BITMAP
00
ENDCHAR
STARTCHAR numbersign
ENCODING 35
SWIDTH 1000 0
DWIDTH 31 0
BBX 1 1 0 0
BITMAP
00
ENDCHAR
STARTCHAR dollar
ENCODING 36
SWIDTH 1000 0
DWIDTH 31 0
BBX 1 1 0 0
BITMAP
00
ENDCHAR
STARTCHAR percent
ENCODING 37
SWIDTH 1000 0
DWIDTH 31 0
BBX 1 1 0 0
BITMAP
00
ENDCHAR
STARTCHAR ampersand
ENCODING 38
SWIDTH 1000 0
DWIDTH 31 0
BBX 1 1 0 0
BITMAP
00
ENDCHAR
STARTCHAR quotesingle
ENCODING 39
SWIDTH 1000 0
DWIDTH 31 0
BBX 1 1 0 0
BITMAP
00
ENDCHAR
STARTCHAR parenleft
ENCODING 40
SWIDTH 1000 0
DWIDTH 31 0
BBX 1 1 0 0
BITMAP
00
ENDCHAR
STARTCHAR parenright
ENCODING 41
SWIDTH 1000 0
DWIDTH 31 0
BBX 1 1 0 0
BITMAP
00
ENDCHAR
STARTCHAR asterisk
ENCODING 42
SWIDTH 1000 0
DWIDTH 31 0
BBX 1 1 0 0
BITMAP
00
ENDCHAR
STARTCHAR plus
ENCODING 43
SWIDTH 1000 0
DWIDTH 31 0
BBX 1 1 0 0
BITMAP
00
ENDCHAR
STARTCHAR comma
ENCODING 44
SWIDTH 320 0
DWIDTH 10 0
BBX 9 12 1 -6
BITMAP
1F00
3F80
3F00
3F00
3F00
3E00
3E00
7E00
7C00
F800
F000
6000
ENDCHAR
STARTCHAR hyphen
ENCODING 45
SWIDTH 1000 0
DWIDTH 31 0
BBX 1 1 0 0
BITMAP
00
ENDCHAR
STARTCHAR period
ENCODING 46
SWIDTH 301 0
DWIDTH 9 0
BBX 7 6 2 0
BITMAP
7E
7E
7E
FE
FC
FC
ENDCHAR
STARTCHAR slash
ENCODING 47
SWIDTH 1000 0
DWIDTH 31 0
BBX 1 1 0 0
BITMAP
00
ENDCHAR
STARTCHAR zero
ENCODING 48
SWIDTH 565 0
DWIDTH 18 0
BBX 18 22 3 0
BITMAP
007E00
01FF00
03FF80
07FFC0
0DFFC0
1F8FC0
1F0FC0
3F0FC0
3E0F80
3E0F80
7E1F80
5C1F80
FC1F00
F83F00
F83F00
F83E00
F87E00
FCFC00
FFF800
FFF000
7FE000
3F8000
ENDCHAR
STARTCHAR one
ENCODING 49
SWIDTH 421 0
DWIDTH 13 0
BBX 12 24 5 -1
BITMAP
0150
07D0
0FE0
1FE0
3FE0
FFE0
73C0
63C0
C7C0
07C0
0780
0780
0F80
0F80
0F00
0F00
1F00
1F00
1E00
3E00
3600
3E00
3C00
2C00
ENDCHAR
STARTCHAR two
ENCODING 50
SWIDTH 535 0
DWIDTH 17 0
BBX 19 22 1 0
BITMAP
003F00
007FC0
01FFC0
03FFE0
03FFE0
07C7E0
0787C0
0307C0
000F80
001F00
003E00
007C00
00F800
03F000
07C000
0F8000
3F0000
7FFE00
7FFE00
7FFE00
7FFE00
FFFC00
ENDCHAR
STARTCHAR three
ENCODING 51
SWIDTH 597 0
DWIDTH 19 0
BBX 19 23 3 0
BITMAP
007F00
01FF80
03FFC0
07FFE0
0FDDE0
1F8FC0
170FC0
000F80
001F80
00FF00
00FE00
00FE00
01FE00
00FF00
007F00
003F00
E83F00
F83E00
FC7E00
FFFC00
7FF800
7FE000
1F8000
ENDCHAR
STARTCHAR four
ENCODING 52
SWIDTH 607 0
DWIDTH 19 0
BBX 18 25 3 -1
BITMAP
000BC0
0017C0
002FC0
007FC0
007F80
00FFC0
01FF80
03FF80
07FF80
07FF80
0FDF00
1F9F00
3F1F00
3E3E00
7E3E00
FFFF00
FFFF80
FFFF00
FFFF00
FFFF00
00FC00
00B800
00F800
01F800
001000
ENDCHAR
STARTCHAR five
ENCODING 53
SWIDTH 561 0
DWIDTH 17 0
BBX 19 23 3 0
BITMAP
07FFC0
0FFFE0
0FFFC0
0FFF80
0FFF80
0F0000
1E0000
1EF800
1FFC00
3FFE00
3FFE00
3E3E00
703E00
003E00
007E00
F87E00
F87C00
FFFC00
FDF800
FFF000
FFE000
7FC000
1F0000
ENDCHAR
STARTCHAR six
ENCODING 54
SWIDTH 550 0
DWIDTH 17 0
BBX 15 22 3 0
BITMAP
001C
003E
005C
00F8
01F8
01F0
03E0
07C0
07C0
1FF0
1FFC
3FFC
3FFE
7C7E
FC3E
F83C
F87C
FFF8
FFF8
7FF0
7FE0
1F80
ENDCHAR
STARTCHAR seven
ENCODING 55
SWIDTH 618 0
DWIDTH 19 0
BBX 19 23 5 -1
BITMAP
3FFFC0
3FFFE0
07FF80
3FFF80
7FFF80
403E00
007C00
00F800
00F000
01E000
03E000
07C000
07C000
0F8000
1F8000
1F0000
3F0000
3E0000
7E0000
7E0000
7C0000
F40000
280000
ENDCHAR
STARTCHAR eight
ENCODING 56
SWIDTH 636 0
DWIDTH 20 0
BBX 19 24 3 0
BITMAP
001000
007F00
01FFC0
03CFC0
07FFE0
0FC7E0
0F87E0
1787E0
1F87E0
1FFFC0
0FFF80
0FFF00
0FFF00
1FFF80
3FFF80
7F1F80
FE1F80
FC1F80
FC1F00
FE3E00
7FFC00
7FBC00
3FF000
07C000
ENDCHAR
STARTCHAR nine
ENCODING 57
SWIDTH 576 0
DWIDTH 18 0
BBX 16 22 5 0
BITMAP
01F8
07FE
0FFF
1FFF
3F3F
3C1F
7C1F
FC3E
FC3E
7FFE
7FF8
3FF8
1FF0
03E0
07C0
0FC0
0F80
1F00
3E00
7E00
7C00
C800
ENDCHAR
STARTCHAR colon
ENCODING 58
SWIDTH 1000 0
DWIDTH 31 0
BBX 1 1 0 0
BITMAP
00
ENDCHAR
STARTCHAR semicolon
ENCODING 59
SWIDTH 1000 0
DWIDTH 31 0
BBX 1 1 0 0
BITMAP
00
ENDCHAR
STARTCHAR less
ENCODING 60
SWIDTH 1000 0
DWIDTH 31 0
BBX 1 1 0 0
BITMAP
00
ENDCHAR
STARTCHAR equal
ENCODING 61
SWIDTH 1000 0
DWIDTH 31 0
BBX 1 1 0 0
BITMAP
00
ENDCHAR
STARTCHAR greater
ENCODING 62
SWIDTH 1000 0
DWIDTH 31 0
BBX 1 1 0 0
BITMAP
00
ENDCHAR
STARTCHAR question
ENCODING 63
SWIDTH 1000 0
DWIDTH 31 0
BBX 1 1 0 0
BITMAP
00
ENDCHAR
STARTCHAR at
ENCODING 64
SWIDTH 1000 0
DWIDTH 31 0
BBX 1 1 0 0
BITMAP
00
ENDCHAR
STARTCHAR A
ENCODING 65
SWIDTH 758 0
DWIDTH 24 0
BBX 21 24 1 -2
BITMAP
0003C0
0007C0
000FE0
001BE0
001FE0
003FE0
007FE0
00FFE0
00FFF0
01FBF0
01F3F0
03F3F0
07E3F0
07C3F0
0FFFF0
1FFBF0
1FFFF8
3FFFF8
7F81F8
7E01F8
FE01F8
AC01F8
400158
000010
ENDCHAR
STARTCHAR B
ENCODING 66
SWIDTH 677 0
DWIDTH 21 0
BBX 23 23 1 -1
BITMAP
03FFF0
07FFFC
07FFFC
07FFFE
03E0FE
03E07E
07C0FC
07C0FC
06FFF8
0FFFB0
1FFFE0
0FFFE0
17FFE0
1FCFF0
1F03F0
1F03F0
3F03F0
3FFFF0
FFE7F0
7FFFE0
7FFFC0
FFFF00
7FFC00
ENDCHAR
STARTCHAR C
ENCODING 67
SWIDTH 627 0
DWIDTH 19 0
BBX 19 22 3 0
BITMAP
003F00
01FF80
03FFC0
07FFC0
0FFEE0
0FC7E0
1F83A0
3F0200
3E0000
7E0000
7C0000
7C0000
6C0400
FC0F00
FC0F80
FC1F00
FE7F00
FFFE00
7FFC00
3FF800
3FF000
0FC000
ENDCHAR
STARTCHAR D
ENCODING 68
SWIDTH 633 0
DWIDTH 20 0
BBX 21 24 1 -1
BITMAP
004000
01FF00
03FFE0
03FFF0
03FFF8
07E1F8
07C1F8
07C0F8
07C0F8
07C0F8
0FC1F8
0F81F0
0F81F0
1F81F0
2F03F0
3F03E0
3F03E0
3F07E0
5F3FC0
7FFFC0
7FFF80
7FFF00
FFFC00
FFC000
ENDCHAR
STARTCHAR E
ENCODING 69
SWIDTH 632 0
DWIDTH 20 0
BBX 22 22 2 0
BITMAP
03FFFC
0FFFF8
07FFFC
03FFF8
03E000
03E000
03C000
07C000
07C000
0FFFC0
07FF80
0FFFC0
1FFFC0
0F8000
0F0000
0F0000
1F0000
1F0000
1FFF80
3FFFC0
FFFF80
7FFF00
ENDCHAR
STARTCHAR F
ENCODING 70
SWIDTH 564 0
DWIDTH 17 0
BBX 20 24 2 -2
BITMAP
07FFF0
07FFF0
07FFE0
1FFFE0
2FFFE0
0F8000
0F8000
0F8000
1F0000
3FFF00
1FFF00
3FFC00
7FFF00
3E0000
3C0000
7C0000
7C0000
7C0000
780000
F80000
B80000
A80000
200000
400000
ENDCHAR
STARTCHAR G
ENCODING 71
SWIDTH 682 0
DWIDTH 21 0
BBX 19 22 4 0
BITMAP
007E00
01FF80
03FFC0
07FF60
0FFFE0
1F83E0
3F0340
3E0000
7C0000
7C0000
783FE0
F87FE0
F83FC0
F87FC0
F80FC0
F80F80
F81F80
FC3F00
FFFF00
7FFE00
3FF800
1FC000
ENDCHAR
STARTCHAR H
ENCODING 72
SWIDTH 602 0
DWIDTH 19 0
BBX 22 25 1 -2
BITMAP
008004
00A05C
03E07C
07C058
07C0E8
07C0F8
0FC0F0
0F80F0
0F80F0
0F81F0
1F81E0
1FFFE0
1FFFE0
1FFFE0
3FFFC0
3E03C0
3E07C0
5E0780
7E0F80
7C0F80
7C0F80
DC0B80
F80F00
281500
200200
ENDCHAR
STARTCHAR I
ENCODING 73
SWIDTH 269 0
DWIDTH 8 0
BBX 11 24 2 -1
BITMAP
04E0
07C0
07C0
07C0
0F80
0F80
0F80
0F80
1F80
1D00
1F00
3F00
3F00
3E00
7E00
7E00
7E00
7C00
FC00
FC00
FC00
F800
F800
F000
ENDCHAR
STARTCHAR J
ENCODING 74
SWIDTH 515 0
DWIDTH 16 0
BBX 20 23 0 0
BITMAP
0001D0
0003F0
0003E0
0003E0
0007E0
0007E0
0007E0
0007C0
000FC0
000FC0
000FC0
000F80
001F80
001F80
001F00
003F00
003E00
107E00
3FFC00
FFFC00
3FF800
7FE000
1F8000
ENDCHAR
STARTCHAR K
ENCODING 75
SWIDTH 645 0
DWIDTH 20 0
BBX 24 23 1 0
BITMAP
008000
03E077
03E0DC
03C1B8
03C370
07C7E0
07CFE0
07DE80
0FBF00
0FFE00
0FFC00
1FFE00
1FFE00
1FBE00
3FFE00
3F3F00
363F00
3E3F00
7C1F80
741F80
740E80
FC0FC0
680740
ENDCHAR
STARTCHAR L
ENCODING 76
SWIDTH 552 0
DWIDTH 17 0
BBX 15 23 2 0
BITMAP
0100
0740
07C0
0B80
0F80
0F80
0F80
1B00
1F00
1F00
3F00
3F00
3E00
3E00
7E00
7E00
7C00
7C10
FFFE
FFFE
FFFC
FFFC
FFE0
ENDCHAR
STARTCHAR M
ENCODING 77
SWIDTH 968 0
DWIDTH 30 0
BBX 32 25 1 -3
BITMAP
010C00E7
039F03FF
03BF03FF
03BF07FF
07FF0FFF
07FF0FFF
07FE1FFE
0FFE1FFE
0DDE1FFE
0FDE3FFE
1FDE3EFC
1F9E7FFC
1F9E7DFC
1F9EF9F8
3F1EF9F8
3F1FF3F8
3F1FE3F0
7E1FE3F0
7E1FC7F0
7E1F87E0
7E1F8FE0
FC1F0FE0
10000280
00000200
00000400
ENDCHAR
STARTCHAR N
ENCODING 78
SWIDTH 645 0
DWIDTH 20 0
BBX 22 25 2 -1
BITMAP
000010
00407C
06E07C
07E07C
07E07C
07E07C
0FF0F8
0FF0F8
0FF0F8
0FF8F0
1FF9F0
1FFDB0
1FFEE0
3F7FE0
3F3FE0
3D3FE0
7E3FC0
7E1FC0
7E1FC0
7C1F80
FC0F80
F40F80
F80F00
F80300
800000
ENDCHAR
STARTCHAR O
ENCODING 79
SWIDTH 666 0
DWIDTH 21 0
BBX 20 24 3 -1
BITMAP
003800
00FE00
01FFC0
03FFE0
07FFF0
0FFFF0
0FC3F0
1F81F0
3F0370
3F03F0
3F03F0
3E03E0
7E07E0
7E07E0
5E07C0
7C0FC0
FC0FC0
FC1F80
FE3F80
FFFF00
7FFE00
7FFC00
3FF800
1FC000
ENDCHAR
STARTCHAR P
ENCODING 80
SWIDTH 600 0
DWIDTH 19 0
BBX 21 23 0 -1
BITMAP
01FFC0
03FFF0
03FF78
03FFF8
03E7E8
07E0E8
07C0F8
07C0F8
0FC0F0
0F83F0
0FFFE0
1FFFC0
1FFF00
1FF000
1F0000
1E0000
3E0000
3E0000
3E0000
7E0000
7E0000
7E0000
800000
ENDCHAR
STARTCHAR Q
ENCODING 81
SWIDTH 682 0
DWIDTH 21 0
BBX 20 24 4 -1
BITMAP
007F80
01EFE0
03FFF0
07FFF0
0BFFF0
0FC3F0
1F83F0
1F03F0
3F03F0
3F03F0
3E03F0
7E07E0
7E06E0
7C0760
7C2BC0
FC7FC0
DCFF80
FCFF80
FEFF00
BFFF00
7FFF80
3FFF00
0F8E00
000400
ENDCHAR
STARTCHAR R
ENCODING 82
SWIDTH 620 0
DWIDTH 19 0
BBX 21 26 1 -3
BITMAP
01C000
037FC0
03FFF0
07FFF0
07FFF8
06FFF8
07C3F8
07C1F0
0F83F0
0F83F0
0F9FE0
1FFF40
1FFF80
1FFF00
3FFF00
3E3F00
2E3F00
7E3F00
7E3F80
7E1F80
FC1F80
FC1F80
F80F80
B80CC0
100C00
100400
ENDCHAR
STARTCHAR S
ENCODING 83
SWIDTH 598 0
DWIDTH 19 0
BBX 23 23 0 -1
BITMAP
001FE0
007FF8
00FFDC
01FFEE
03F070
03E028
07E000
07F000
0BFE00
07FF80
07BFC0
03FFE0
01FFE0
003FE0
0007E0
1007E0
9C0FE0
7F1FC0
BFFF80
7FFF80
3FFF00
1FFE00
07F800
ENDCHAR
STARTCHAR T
ENCODING 84
SWIDTH 699 0
DWIDTH 22 0
BBX 20 25 6 -3
BITMAP
3FFFE0
7FFFF0
FFFF80
3FFFE0
3FFFC0
02F000
03F000
03F000
03E000
03E000
07E000
07E000
07C000
07C000
0BC000
0FC000
0F8000
0F8000
1F8000
1F0000
1D0000
1F0000
270000
060000
040000
ENDCHAR
STARTCHAR U
ENCODING 85
SWIDTH 633 0
DWIDTH 20 0
BBX 21 23 3 0
BITMAP
040010
0F81F8
0F81F8
0B81F8
1F81F0
1F83F0
1703F0
3F03E0
3F07E0
3E07E0
3E07E0
7E07E0
7E0FC0
7E0FC0
FE0F80
FE1F80
FC1F00
FE3F00
FE7E00
FDFC00
7F7800
7FF000
1FC000
ENDCHAR
STARTCHAR V
ENCODING 86
SWIDTH 636 0
DWIDTH 20 0
BBX 18 23 6 0
BITMAP
D00540
F80F80
F81B00
F81F00
F83E00
FC7E00
FC7C00
FCFC00
F8F800
F9F000
F9F000
FBE000
FBE000
FFC000
FF8000
FF8000
FF0000
7F0000
7E0000
7E0000
7C0000
7C0000
380000
ENDCHAR
STARTCHAR W
ENCODING 87
SWIDTH 1030 0
DWIDTH 32 0
BBX 32 24 5 -1
BITMAP
20000016
3607C07F
7E0EE0BE
7E0FE0FC
7E17E17C
7E1FE1F8
762FE1F8
7E3FE3F0
7E7FE3F0
7E7FE7E0
7EFBE7E0
7EFBEFC0
7FF3FFC0
7FF3FFC0
7FE3FF80
7FE3FF80
7FC3FF00
5FC3FF00
7F83FE00
7F03FE00
7F03FE00
FE03FC00
7E03F800
80028000
ENDCHAR
STARTCHAR X
ENCODING 88
SWIDTH 698 0
DWIDTH 22 0
BBX 25 25 1 -1
BITMAP
00000A80
02F03500
03F07E00
01F87C00
01F8F800
01F9F000
00FBF000
00FFE000
00FFC000
007F8000
007F8000
003F0000
007F0000
00FF0000
01FF8000
01FF8000
03FF8000
07EFC000
0FCFC000
1F8FE000
3F0FE000
7E0BE000
FC07E000
5802D000
A0000000
ENDCHAR
STARTCHAR Y
ENCODING 89
SWIDTH 633 0
DWIDTH 20 0
BBX 17 24 7 -2
BITMAP
280080
F80B80
F81F00
F81F00
7C3E00
6C7C00
7C7800
3CF800
3DF000
3DE000
3FE000
3FC000
3F8000
3F0000
3F0000
1E0000
1E0000
2E0000
3E0000
3C0000
3C0000
5C0000
380000
280000
ENDCHAR
STARTCHAR Z
ENCODING 90
SWIDTH 595 0
DWIDTH 18 0
BBX 22 22 1 0
BITMAP
000070
03FFFC
07FFF8
03FFF8
07FFF0
000FE0
001FC0
003F80
007F00
00FE00
01FC00
03F800
07F800
0FF000
0FE000
1FC000
3F8000
7F0000
FFFF80
F7FE00
FFFF00
7FFC00
ENDCHAR
STARTCHAR a
ENCODING 97
SWIDTH 758 0
DWIDTH 24 0
BBX 23 30 0 -8
BITMAP
0003E0
0007F0
0007F0
000FF0
001FF0
001FF0
003FF0
007FF8
007FF8
00F9F8
01F9F8
01F1F8
03F1F8
06E1F8
07FFFC
0FFDFC
1FFFFC
1FFFFC
3F01FC
3F01FC
7E01FC
FC01FE
3800FE
70006C
300028
300028
300028
300008
000008
000008
ENDCHAR
STARTCHAR b
ENCODING 98
SWIDTH 639 0
DWIDTH 20 0
BBX 22 30 0 -8
BITMAP
03FFE0
07FFF8
07FFFC
07FFBC
03E9FC
03E9FC
03C8F8
07C1F8
07FFF0
0FFFE0
1FFFC0
0FFFC0
1FFFE0
1F0FE0
1F03E0
1F07E0
1E0FE0
FFFFC0
3FFFC0
7FFF80
FFFE00
7EB800
01E000
00A000
00A000
00A000
008000
008000
008000
008000
ENDCHAR
STARTCHAR c
ENCODING 99
SWIDTH 627 0
DWIDTH 19 0
BBX 19 29 3 -6
BITMAP
003F00
00FF80
03FFC0
07FFC0
0FFFE0
0DFEE0
1FE7E0
3FA3A0
3F2200
3F2000
7E3000
7E2000
7C0000
6C0000
FC0700
FC0FC0
FC0F80
FE1F80
FFFF00
7FFE00
3FFC00
1FF800
0FE000
024000
024000
024000
034000
020000
020000
ENDCHAR
STARTCHAR d
ENCODING 100
SWIDTH 673 0
DWIDTH 21 0
BBX 22 30 1 -7
BITMAP
004000
01FF80
03FFF0
03FFF8
03FFE8
03FFFC
03FA7C
03EA7C
07EA7C
07E87C
07E87C
0FC878
0FC078
0FC0F8
1BC0F8
1F80F8
2F81F0
3F83F0
3FFFE0
3FFFE0
7FFFC0
3FFF00
7FFC00
C04C00
004C00
004C00
004C00
004C00
001400
000C00
ENDCHAR
STARTCHAR e
ENCODING 101
SWIDTH 645 0
DWIDTH 20 0
BBX 21 28 3 -6
BITMAP
07FFF8
0FFFF8
07FFF8
0FFFF0
07C010
07C010
078010
078010
0FFFD0
0FFF80
0FFF80
1FFF80
3F0000
1F0000
1E0000
1E0000
3E0000
3FFF80
3FFF80
7FFF80
FFBF80
FBFB00
07E800
030800
050800
030000
030000
030000
ENDCHAR
STARTCHAR f
ENCODING 102
SWIDTH 564 0
DWIDTH 17 0
BBX 20 23 2 -1
BITMAP
07FFF0
07FFF0
0FFFF0
3F8000
0F8000
0F8000
0D0000
1FFF00
1FFE00
3FFF00
1FFE00
3FFE00
7FFF00
3EB000
5CB000
7CB000
7C3000
7C3000
783000
780000
B80000
300000
400000
ENDCHAR
STARTCHAR g
ENCODING 103
SWIDTH 682 0
DWIDTH 21 0
BBX 19 32 4 -9
BITMAP
007E00
01FF80
03FFE0
07FFE0
0FE7E0
0FC3C0
1F4200
3F4000
3D4000
3D0000
7D0000
797FE0
797FC0
F8BFC0
F87F80
F80F80
F80F00
FC1F00
FC3F00
7FFE00
7FFC00
3FFC00
17FC00
1CE400
148400
148400
048400
048C00
008000
008000
00C000
00C000
ENDCHAR
STARTCHAR h
ENCODING 104
SWIDTH 602 0
DWIDTH 19 0
BBX 21 28 2 -6
BITMAP
0100A8
0140F8
0740F8
0780F8
0F81F0
0F81F0
0F81F0
1F01E0
1F01E0
1F03E0
2FFFC0
3FFFC0
3FFFC0
3FCFC0
7F3680
7D0F80
7D0F80
7D0F00
BE0D00
F81F00
F81F00
B81F00
501A00
500200
100000
100000
100000
100000
ENDCHAR
STARTCHAR i
ENCODING 105
SWIDTH 269 0
DWIDTH 8 0
BBX 12 31 1 -8
BITMAP
0010
03E0
03E0
03E0
03C0
03C0
07C0
07C0
07C0
0E80
0F80
0F80
1F00
1F00
1F00
3F00
3E00
3E00
7E00
7E00
7C00
7C00
7C00
F800
3800
1000
2000
3000
3000
5000
3000
ENDCHAR
STARTCHAR j
ENCODING 106
SWIDTH 515 0
DWIDTH 16 0
BBX 19 29 1 -6
BITMAP
0003E0
0003E0
0003E0
0003E0
0007E0
0007E0
0007C0
0007C0
000FC0
000F80
000F80
001F80
001F00
003F00
003E00
003E00
007C00
007C00
10FC00
FFF800
7FF000
FFE000
7F8000
060000
040000
040000
040000
060000
060000
ENDCHAR
STARTCHAR k
ENCODING 107
SWIDTH 645 0
DWIDTH 20 0
BBX 23 29 2 -6
BITMAP
018000
05C06E
07C1B8
07C370
0787E0
058FC0
0F9780
0FBF00
0F7E00
1FFC00
1FF800
1FFC00
3FFC00
3FFC00
3E7C00
7C7E00
7C3E00
7C3F00
F83F00
F81F00
F80F80
D00F80
500780
500600
500400
100600
100600
000600
000600
ENDCHAR
STARTCHAR l
ENCODING 108
SWIDTH 552 0
DWIDTH 17 0
BBX 15 30 2 -7
BITMAP
0100
0740
07C0
0780
0F80
0F80
0F80
1F00
1F00
1F00
3F00
3F00
3E00
3600
7E00
7E00
7C00
7C10
FFFE
FFFE
FFFC
FFFC
FFC0
3380
3380
3280
3280
3280
2080
0080
ENDCHAR
STARTCHAR m
ENCODING 109
SWIDTH 968 0
DWIDTH 30 0
BBX 31 27 2 -5
BITMAP
021F01CE
07BF07FA
07FF07FE
075F0FFE
07FF1FFE
0FFF1FFC
0FFF3FFC
1BFF3FFC
1FBF3FFC
1FBF7FFC
1FBE7DF8
3FBCFBF8
3F3CFBF0
3F3DF3F0
3F3DF3F0
7E3FE7F0
7E3FC7F0
7E3FC7F0
7C3E8DF0
FC3F0FC0
FC3F17C0
FC3E1700
28000400
28000400
70000000
60000000
60000000
ENDCHAR
STARTCHAR n
ENCODING 110
SWIDTH 645 0
DWIDTH 20 0
BBX 21 29 3 -5
BITMAP
000020
0280F8
06C0F8
07C0F8
07C0F8
0FE1F0
0FE1F0
0FF1F0
0FF1E0
1FF1E0
1FFB60
1FFBC0
3FFBC0
3FFFC0
3EFF80
7EFF80
7EBF80
7E3F80
FE1F00
FA1F00
F81E00
D81E00
F00E00
D00C00
500C00
500C00
400C00
400000
400000
ENDCHAR
STARTCHAR o
ENCODING 111
SWIDTH 666 0
DWIDTH 21 0
BBX 19 31 4 -8
BITMAP
007000
00FC00
01FF80
07FFC0
0FFFE0
0FFFE0
1F87E0
3F83E0
3F82E0
3E87E0
7E87C0
7E87C0
7E8FC0
FE8F80
FC1F80
FC1F80
FC3F00
FC5F00
FFFE00
FFFC00
FFF800
7FF000
3F6000
03C000
014000
014000
014000
010000
010000
010000
010000
ENDCHAR
STARTCHAR p
ENCODING 112
SWIDTH 600 0
DWIDTH 19 0
BBX 21 24 0 -2
BITMAP
01FFC0
01FFF0
016FF8
03F0E8
03E0F8
03E0E8
03E0F8
07C0B8
07C1F0
07FFF0
0FFFE0
0FFFC0
0FF700
0FF900
0F1000
1F1000
1F1800
1E0000
3E0000
3E0000
7E0000
7C0000
840000
800000
ENDCHAR
STARTCHAR q
ENCODING 113
SWIDTH 689 0
DWIDTH 21 0
BBX 20 28 4 -5
BITMAP
007F00
01FFC0
03FFE0
07FFF0
0FC7F0
0F83F0
1F83F0
1F03F0
3F03F0
3E03E0
3E07E0
7E07E0
7E0760
7C0FC0
FC6FC0
FC7780
FCFF80
FEFF00
FFFE00
BFFF00
7FFF00
3FFF00
1F2C00
012000
012000
010000
030000
010000
ENDCHAR
STARTCHAR r
ENCODING 114
SWIDTH 620 0
DWIDTH 19 0
BBX 20 31 2 -8
BITMAP
01C000
02C000
06FFC0
07FFE0
07FEE0
05FFF0
0F87F0
0F83F0
0F83F0
0F87E0
1F0FC0
1FFFE0
1FFFC0
3FFE40
3E7E40
3E7E40
7E7E00
7C3E00
7C3F00
FC3F00
FC3F00
FC1F00
FC1F00
F80D80
700F00
700700
500500
100400
100400
000400
000400
ENDCHAR
STARTCHAR s
ENCODING 115
SWIDTH 598 0
DWIDTH 19 0
BBX 22 29 0 -6
BITMAP
001FC0
007FF0
01FEF8
01FFFC
03FBDC
03E070
07E030
07E010
0FFC10
0FFF10
07FF90
03FFC0
00FFC0
001FE0
0007E0
100FC0
9C0FC0
7F3FC0
7FFF80
3FFF00
3FFF00
1FFC00
07B800
03E800
030800
030800
030800
030000
030000
ENDCHAR
STARTCHAR t
ENCODING 116
SWIDTH 699 0
DWIDTH 22 0
BBX 19 31 7 -9
BITMAP
3FFFC0
7FFFE0
FFFF80
3FFF00
7FFF80
03EA00
03EA00
03EA00
07C200
07C200
07C000
0BC000
0F8000
0F8000
0F8000
178000
170000
1D0000
1F0000
3E0000
3E0000
3E0000
3E0000
1C0000
140000
140000
100000
100000
100000
180000
100000
ENDCHAR
STARTCHAR u
ENCODING 117
SWIDTH 633 0
DWIDTH 20 0
BBX 20 28 4 -5
BITMAP
000020
0D83F0
1F83F0
1F83E0
1787E0
1F06E0
3F07C0
2E0FC0
2E0FC0
7E0FC0
7E0FC0
7C0F80
7C1F80
7C1F80
F41F00
F43F00
F47E00
FCFE00
FFFC00
FFF800
7FF000
39E000
1F8000
188000
188000
18C000
180000
180000
ENDCHAR
STARTCHAR v
ENCODING 118
SWIDTH 636 0
DWIDTH 20 0
BBX 18 30 7 -7
BITMAP
500140
F40580
F40B80
FC1F00
FC1B00
FC3F00
FE3F00
FE5D00
FC7D00
DCF900
DCF900
FDF900
FDFA00
FFF000
FFF000
7FE000
7F8000
7F8000
7F0000
7F0000
7F0000
7E0000
3E0000
1E0000
120000
120000
1A0000
100000
100000
100000
ENDCHAR
STARTCHAR w
ENCODING 119
SWIDTH 1030 0
DWIDTH 31 0
BBX 30 33 6 -10
BITMAP
6001002C
FA07E0FC
FE1FE17C
FE1FE1F8
FE1FE3F8
FE3FE3F0
FC7FE3F0
FC7FE7E0
FCFFE7E0
FCFEEFC0
FDFBEFC0
FFF3EF80
FFF3FF80
BFE3FF00
FFE3FF00
FFC3FF00
FFC3FE00
FF83FE00
FF86FC00
FF05FC00
FE03F800
DE03F800
FC03F000
2002F000
2001F000
2000B000
2000A000
3000A000
3000A000
00009000
00001000
00003000
00003000
ENDCHAR
STARTCHAR x
ENCODING 120
SWIDTH 698 0
DWIDTH 22 0
BBX 24 30 2 -7
BITMAP
000015
02F039
03F07A
01F0F4
01FBF8
01FBF0
00FFE0
00FFC0
00FFC0
007F80
007F00
007E00
00FE00
00FF00
01FF00
07FF80
07FF80
0FCFC0
1F8FC0
3F0FC0
7E0FE0
F807E0
7007E0
800380
000280
000280
000280
000200
000200
000200
ENDCHAR
STARTCHAR y
ENCODING 121
SWIDTH 633 0
DWIDTH 20 0
BBX 17 29 7 -7
BITMAP
280080
F81380
F81F00
F83D00
F83E00
787C00
7CF800
7CF000
7DF000
7DE000
7FC000
7FC000
7F8000
7F0000
3E0000
3E0000
3E0000
3E0000
3C0000
7C0000
7C0000
7C0000
780000
F80000
380000
280000
280000
200000
200000
ENDCHAR
STARTCHAR z
ENCODING 122
SWIDTH 595 0
DWIDTH 18 0
BBX 21 29 2 -7
BITMAP
0000F0
03FFF8
07FFF0
07FFF0
0FFFF0
000FC0
001F80
003F00
007E00
00FE00
01FC00
03F800
06F000
0DE000
1FC000
3F8000
7F0000
7E0000
F7FF00
FFFE00
FFFC00
FFFF00
06F800
03B000
032000
002000
003000
003000
003000
ENDCHAR
STARTCHAR logicalnot
ENCODING 172
SWIDTH 1000 0
DWIDTH 31 0
BBX 1 1 0 0
BITMAP
00
ENDCHAR
STARTCHAR acute
ENCODING 180
SWIDTH 1000 0
DWIDTH 31 0
BBX 1 1 0 0
BITMAP
00
ENDCHAR
STARTCHAR acircumflex
ENCODING 226
SWIDTH 1000 0
DWIDTH 31 0
BBX 1 1 0 0
BITMAP
00
ENDCHAR
STARTCHAR quoteright
ENCODING 8217
SWIDTH 1000 0
DWIDTH 31 0
BBX 1 1 0 0
BITMAP
00
ENDCHAR
STARTCHAR .notdef
ENCODING -1
SWIDTH 500 0
DWIDTH 16 0
BBX 12 22 2 0
BITMAP
FFF0
FFF0
C030
C030
C030
C030
C030
C030
C030
C030
C030
C030
C030
C030
C030
C030
C030
C030
C030
C030
FFF0
FFF0
ENDCHAR
ENDFONT
